<svg width="405" height="385" viewBox="0 0 405 385" fill="none" xmlns="http://www.w3.org/2000/svg">
<g opacity="0.7" clip-path="url(#clip0)">
<path d="M267.82 52.9155L264.602 45.7874C258.268 31.7534 241.696 25.49 227.663 31.8246C213.629 38.1591 207.365 54.7303 213.7 68.7643L216.745 75.5097L211.504 77.8755L208.459 71.1301C202.124 57.0961 185.552 50.8327 171.519 57.1672C157.485 63.5018 151.221 80.0729 157.556 94.107L160.601 100.852L155.36 103.218L152.315 96.4728C145.98 82.4387 129.409 76.1753 115.375 82.5099C101.342 88.8445 95.0776 105.416 101.412 119.45L104.457 126.195L99.2161 128.561L96.1713 121.815C89.8365 107.781 73.265 101.518 59.2315 107.853C45.198 114.187 38.9333 130.759 45.2681 144.793L48.3626 151.648C38.092 157.282 31.1671 167.358 29.6357 179.126C29.3166 181.579 31.0464 183.826 33.4986 184.146C34.3539 184.257 35.1833 184.119 35.9153 183.789C37.2836 183.171 38.3097 181.88 38.5177 180.282C39.6449 171.618 44.6413 164.176 52.0663 159.853L54.1852 164.547C60.52 178.581 77.0914 184.845 91.1249 178.51C97.8774 175.462 100.891 167.489 97.843 160.737C94.7952 153.985 86.8223 150.971 80.0698 154.019C79.5403 154.258 78.9152 154.021 78.6764 153.492L76.4892 148.647L108.142 134.359L110.329 139.205C116.664 153.239 133.235 159.502 147.269 153.167C154.021 150.119 157.034 142.146 153.987 135.394C150.939 128.642 142.966 125.628 136.214 128.676C135.684 128.915 135.059 128.678 134.82 128.149L132.633 123.304L164.286 109.016L166.473 113.862C172.808 127.896 189.379 134.159 203.413 127.824C210.165 124.776 213.179 116.803 210.131 110.051C207.083 103.299 199.11 100.285 192.358 103.333C191.828 103.572 191.203 103.336 190.964 102.807L188.777 97.9611L220.43 83.6735L222.617 88.5189C228.952 102.553 245.523 108.816 259.557 102.482C266.309 99.4338 269.322 91.4606 266.275 84.7086C263.227 77.9567 255.254 74.9425 248.501 77.9906C247.972 78.2296 247.347 77.9929 247.108 77.4639L244.922 72.6206L266.289 62.9759C280.268 56.6659 296.773 62.9053 303.083 76.8838L310.787 93.952L48.459 212.364L40.8332 195.47C39.8156 193.216 37.1631 192.213 34.9088 193.231C32.6545 194.248 31.6519 196.901 32.6695 199.155L107.726 365.434C116.068 383.915 137.889 392.163 156.369 383.821L367.995 288.295C386.476 279.953 394.724 258.132 386.382 239.652L311.247 73.1988C303.679 56.4331 285.017 48.0905 267.82 52.9155ZM83.7548 162.183C86.0058 161.166 88.6634 162.171 89.6792 164.422C90.6951 166.672 89.6909 169.33 87.4399 170.346C77.9073 174.649 66.6518 170.395 62.3489 160.862L53.4319 141.108C49.129 131.575 53.384 120.319 62.916 116.017C72.448 111.714 83.7041 115.968 88.007 125.501L91.0518 132.246L82.888 135.931L79.8432 129.186C77.5723 124.155 71.6315 121.91 66.601 124.18C61.5705 126.451 59.3247 132.391 61.5956 137.422L70.5126 157.177C72.7836 162.208 78.7243 164.453 83.7548 162.183ZM69.7594 133.737C69.5203 133.208 69.757 132.583 70.2861 132.344C70.8151 132.105 71.4407 132.342 71.6795 132.871L74.7243 139.616L72.8042 140.483L69.7594 133.737ZM139.899 136.84C142.15 135.824 144.807 136.829 145.823 139.079C146.839 141.33 145.835 143.988 143.584 145.004C134.051 149.307 122.795 145.052 118.493 135.519L109.576 115.765C105.273 106.232 109.528 94.9765 119.06 90.6739C128.592 86.3713 139.848 90.6255 144.151 100.158L147.195 106.903L139.032 110.588L135.987 103.843C133.716 98.812 127.775 96.5669 122.745 98.8376C117.714 101.108 115.468 107.049 117.739 112.08L126.656 131.834C128.927 136.866 134.868 139.111 139.899 136.84ZM125.903 108.395C125.664 107.865 125.901 107.24 126.43 107.001C126.959 106.763 127.584 106.999 127.823 107.528L130.868 114.274L128.948 115.14L125.903 108.395ZM196.043 111.497C198.294 110.481 200.951 111.486 201.967 113.736C202.983 115.987 201.979 118.645 199.728 119.661C190.195 123.964 178.94 119.709 174.637 110.177L165.72 90.4219C161.417 80.8894 165.672 69.6336 175.204 65.331C184.736 61.0283 195.992 65.2826 200.295 74.8151L203.34 81.5605L195.176 85.2456L192.131 78.5001C189.86 73.4691 183.92 71.224 178.889 73.4947C173.859 75.7654 171.613 81.7059 173.884 86.7369L182.801 106.492C185.072 111.523 191.012 113.768 196.043 111.497ZM182.047 83.0519C181.808 82.5223 182.045 81.8973 182.574 81.6585C183.103 81.4197 183.729 81.6562 183.967 82.1852L187.012 88.9306L185.092 89.7973L182.047 83.0519ZM252.187 86.1543C254.438 85.1382 257.095 86.1432 258.111 88.3937C259.127 90.6441 258.123 93.302 255.872 94.3181C246.339 98.6209 235.083 94.3664 230.781 84.8339L221.864 65.0793C217.561 55.5467 221.816 44.291 231.348 39.9883C240.88 35.6857 252.136 39.9399 256.439 49.4725L259.484 56.2201L251.321 59.9051L248.275 53.1575C246.004 48.1264 240.063 45.8814 235.033 48.1521C230.002 50.4228 227.756 56.3632 230.027 61.3942L238.944 81.1489C241.215 86.1799 247.156 88.425 252.187 86.1543ZM238.191 57.7092C237.952 57.1797 238.189 56.5546 238.718 56.3158C239.247 56.077 239.872 56.3135 240.111 56.8425L243.157 63.5901L241.237 64.4568L238.191 57.7092ZM364.31 280.132L152.684 375.657C138.705 381.967 122.2 375.728 115.89 361.749L52.144 220.528L314.472 102.116L378.218 243.337C384.528 257.316 378.289 273.822 364.31 280.132Z" fill="white"/>
<path d="M245.552 154.693C233.251 153.585 222.34 162.687 221.229 174.984L220.833 179.37L162.88 205.529C152.049 210.419 147.214 223.209 152.103 234.041L183.207 302.947C188.096 313.779 200.886 318.613 211.718 313.724L280.625 282.62C291.456 277.731 296.291 264.941 291.402 254.109L264.452 194.405L265.842 179.01C266.946 166.717 257.846 155.808 245.552 154.693ZM256.921 178.206L250.503 249.271C250.28 251.734 252.097 253.912 254.56 254.134C257.025 254.356 259.201 252.54 259.424 250.076L262.813 212.546L283.238 257.794C286.095 264.124 283.27 271.599 276.939 274.457L208.033 305.56C201.703 308.418 194.228 305.593 191.371 299.262L160.267 230.356C157.41 224.026 160.235 216.551 166.565 213.694L219.907 189.616L217.033 221.427L203.592 214.303C198.307 211.501 192.247 210.925 186.528 212.683C180.811 214.441 176.119 218.318 173.32 223.601C170.517 228.887 169.941 234.947 171.698 240.666C173.455 246.385 177.335 251.078 182.622 253.879L225.822 276.771C231.891 279.991 239.256 280.225 245.522 277.396C245.985 277.188 246.456 276.954 246.977 276.674C250.124 274.973 252.847 272.505 254.852 269.538C256.237 267.489 255.699 264.705 253.65 263.32C251.601 261.935 248.816 262.473 247.432 264.523C246.23 266.3 244.6 267.777 242.73 268.788C242.404 268.963 242.112 269.108 241.837 269.232C238.077 270.929 233.659 270.79 230.018 268.858L186.815 245.964C183.642 244.283 181.314 241.468 180.26 238.036C179.206 234.604 179.552 230.968 181.234 227.796C182.914 224.625 185.728 222.298 189.159 221.244C192.59 220.19 196.225 220.535 199.397 222.217L218.79 232.495C220.115 233.196 221.705 233.192 223.021 232.475C224.339 231.761 225.213 230.434 225.347 228.94L230.15 175.79C230.817 168.411 237.366 162.949 244.746 163.614C252.122 164.282 257.584 170.83 256.921 178.206Z" fill="white"/>
</g>
<defs>
<clipPath id="clip0">
<rect width="305.729" height="305.729" fill="white" transform="translate(0 126.78) rotate(-24.2939)"/>
</clipPath>
</defs>
</svg>
